<?xml version="1.0" encoding="UTF-8"?>
<!DOCTYPE svg PUBLIC "-//W3C//DTD SVG 1.1//EN" "http://www.w3.org/Graphics/SVG/1.1/DTD/svg11.dtd">
<svg xmlns="http://www.w3.org/2000/svg" version="1.1" width="512px" height="512px" style="shape-rendering:geometricPrecision; text-rendering:geometricPrecision; image-rendering:optimizeQuality; fill-rule:evenodd; clip-rule:evenodd" xmlns:xlink="http://www.w3.org/1999/xlink">
<g><path style="opacity:0.951" fill="#fefffe" d="M 264.5,48.5 C 289.932,45.8997 309.432,55.233 323,76.5C 335.441,103.622 330.941,127.456 309.5,148C 285.833,164.667 262.167,164.667 238.5,148C 218.275,128.866 213.109,106.366 223,80.5C 231.793,63.1968 245.627,52.5301 264.5,48.5 Z M 271.5,59.5 C 273.527,59.3379 275.527,59.5045 277.5,60C 278.944,63.3249 279.944,66.8249 280.5,70.5C 290.648,74.4641 294.814,81.7974 293,92.5C 291.135,94.6732 288.969,95.0066 286.5,93.5C 285.019,90.3217 283.852,86.9884 283,83.5C 277.333,78.1667 271.667,78.1667 266,83.5C 262.223,88.2604 262.723,92.4271 267.5,96C 273.779,98.4728 279.779,101.473 285.5,105C 294.063,112.281 295.563,120.781 290,130.5C 287.102,133.701 283.602,136.035 279.5,137.5C 278.82,141.123 277.82,144.623 276.5,148C 273.669,149.917 271.169,149.417 269,146.5C 268.502,143.518 268.335,140.518 268.5,137.5C 257.18,134.55 252.68,127.217 255,115.5C 257.048,113.213 259.215,113.046 261.5,115C 263.032,118.306 264.199,121.806 265,125.5C 271.105,130.366 277.105,130.032 283,124.5C 284.769,117.874 282.603,113.04 276.5,110C 268.998,107.825 262.498,103.991 257,98.5C 252.206,85.7422 256.039,76.4089 268.5,70.5C 269.096,66.6678 270.096,63.0011 271.5,59.5 Z"/></g>
<g><path style="opacity:0.95" fill="#fefffe" d="M 410.5,101.5 C 442.996,99.3178 464.163,113.651 474,144.5C 478.712,172.907 468.545,194.074 443.5,208C 414.433,218.945 390.6,212.112 372,187.5C 359.863,165.174 360.863,143.507 375,122.5C 384.409,111.219 396.243,104.219 410.5,101.5 Z M 417.5,112.5 C 420.044,112.104 422.211,112.771 424,114.5C 423.242,120.222 425.409,124.056 430.5,126C 437.956,131.35 440.289,138.183 437.5,146.5C 435.568,147.52 433.568,147.687 431.5,147C 430.213,143.126 428.88,139.293 427.5,135.5C 420.068,130.482 414.234,131.815 410,139.5C 409.333,141.833 409.333,144.167 410,146.5C 416.721,150.446 423.554,154.279 430.5,158C 441.105,168.032 441.105,178.032 430.5,188C 428.35,189.411 426.016,190.245 423.5,190.5C 423.665,193.518 423.498,196.518 423,199.5C 421.01,202.722 418.51,203.222 415.5,201C 413.934,198.07 413.1,194.903 413,191.5C 401.972,186.948 398.139,179.115 401.5,168C 403.167,167.333 404.833,167.333 406.5,168C 408.286,171.213 409.452,174.713 410,178.5C 415.12,183.481 420.62,183.814 426.5,179.5C 430.858,172.392 429.191,166.892 421.5,163C 413.998,160.825 407.498,156.991 402,151.5C 397.675,138.477 401.842,129.143 414.5,123.5C 414.993,119.585 415.993,115.919 417.5,112.5 Z"/></g>
<g><path style="opacity:0.952" fill="#fefffe" d="M 139.5,169.5 C 142.518,169.335 145.518,169.502 148.5,170C 211.266,186.691 273.932,203.691 336.5,221C 353.727,246.563 370.56,272.397 387,298.5C 389.476,305.097 387.976,310.597 382.5,315C 356.324,328.922 329.99,342.588 303.5,356C 302.167,356.167 300.833,356.333 299.5,356.5C 235.029,339.843 170.696,322.676 106.5,305C 101.997,301.155 100.497,296.322 102,290.5C 112.178,252.123 122.511,213.79 133,175.5C 135.063,173.266 137.229,171.266 139.5,169.5 Z M 167.5,197.5 C 173.319,197.276 178.985,198.11 184.5,200C 229.366,211.716 274.032,224.049 318.5,237C 326.476,242.924 329.309,250.757 327,260.5C 322,279.167 317,297.833 312,316.5C 308.035,329.736 299.202,335.236 285.5,333C 241.877,321.178 198.21,309.511 154.5,298C 141.407,294.923 135.24,286.756 136,273.5C 141.26,252.386 146.927,231.386 153,210.5C 156.162,204.164 160.996,199.831 167.5,197.5 Z M 195.5,220.5 C 201.868,221.043 204.035,224.376 202,230.5C 207.769,235.8 209.436,242.133 207,249.5C 204.925,251.648 202.592,251.982 200,250.5C 198.746,247.024 198.079,243.358 198,239.5C 195.083,237.607 191.916,237.107 188.5,238C 185.455,240.448 184.955,243.281 187,246.5C 192,250.167 196.333,254.5 200,259.5C 203.663,271.696 199.163,279.03 186.5,281.5C 185.82,286.359 183.153,288.193 178.5,287C 176.32,284.582 175.987,281.916 177.5,279C 170.119,273.643 168.286,266.809 172,258.5C 174.592,257.018 176.925,257.352 179,259.5C 179.333,262.5 179.667,265.5 180,268.5C 183.943,272.481 187.943,272.481 192,268.5C 192.635,266.365 192.301,264.365 191,262.5C 187.658,258.826 183.992,255.492 180,252.5C 174.213,244.745 175.046,237.579 182.5,231C 185.605,229.132 188.938,227.965 192.5,227.5C 192.15,224.547 193.15,222.213 195.5,220.5 Z M 238.5,231.5 C 243.989,232.331 245.656,235.331 243.5,240.5C 250.607,246.453 252.274,253.62 248.5,262C 244.57,263.421 241.903,262.254 240.5,258.5C 242.631,251.255 239.964,248.089 232.5,249C 228.342,250.794 227.176,253.627 229,257.5C 234.807,261.061 239.473,265.728 243,271.5C 245.962,283.725 241.129,290.725 228.5,292.5C 227.96,299.082 224.96,300.748 219.5,297.5C 218.665,294.86 218.498,292.193 219,289.5C 212.372,284.172 210.872,277.672 214.5,270C 218.634,267.611 221.3,268.778 222.5,273.5C 221.164,281.316 224.497,284.15 232.5,282C 234.444,279.847 234.944,277.347 234,274.5C 230.352,270.521 226.352,266.855 222,263.5C 216.718,255.359 217.884,248.193 225.5,242C 228.334,240.4 231.334,239.234 234.5,238.5C 235.1,235.651 236.433,233.318 238.5,231.5 Z M 280.5,243.5 C 283.547,242.855 285.713,243.855 287,246.5C 286.845,248.811 286.845,251.144 287,253.5C 293.161,258.649 294.827,264.982 292,272.5C 288.904,275.353 286.237,275.02 284,271.5C 283.667,268.5 283.333,265.5 283,262.5C 277.447,258.348 273.28,259.515 270.5,266C 274.648,271.149 279.148,275.982 284,280.5C 289.675,293.482 285.508,301.482 271.5,304.5C 270.19,310.583 267.023,311.916 262,308.5C 261.242,306.231 261.409,304.064 262.5,302C 255.923,297.441 253.757,291.274 256,283.5C 257.722,279.874 260.222,279.041 263.5,281C 265.805,283.23 266.138,285.73 264.5,288.5C 264.848,292.344 267.014,294.344 271,294.5C 276.13,294.05 278.13,291.383 277,286.5C 272.387,281.887 267.721,277.221 263,272.5C 259.548,259.775 264.381,252.442 277.5,250.5C 277.166,247.509 278.166,245.176 280.5,243.5 Z M 339.5,289.5 C 346.105,291.422 352.771,293.255 359.5,295C 363.727,298.925 363.227,302.091 358,304.5C 350.753,302.564 343.586,300.397 336.5,298C 334.702,294.142 335.702,291.309 339.5,289.5 Z"/></g>
<g><path style="opacity:0.923" fill="#fefffe" d="M 171.5,206.5 C 219.001,218.709 266.335,231.542 313.5,245C 317.576,248.226 319.076,252.393 318,257.5C 312.642,278.266 306.976,298.933 301,319.5C 297.774,323.576 293.607,325.076 288.5,324C 242.443,311.87 196.443,299.536 150.5,287C 145.789,282.86 144.289,277.694 146,271.5C 151.178,251.79 156.511,232.123 162,212.5C 164.551,209.319 167.718,207.319 171.5,206.5 Z M 195.5,220.5 C 193.15,222.213 192.15,224.547 192.5,227.5C 188.938,227.965 185.605,229.132 182.5,231C 175.046,237.579 174.213,244.745 180,252.5C 183.992,255.492 187.658,258.826 191,262.5C 192.301,264.365 192.635,266.365 192,268.5C 187.943,272.481 183.943,272.481 180,268.5C 179.667,265.5 179.333,262.5 179,259.5C 176.925,257.352 174.592,257.018 172,258.5C 168.286,266.809 170.119,273.643 177.5,279C 175.987,281.916 176.32,284.582 178.5,287C 183.153,288.193 185.82,286.359 186.5,281.5C 199.163,279.03 203.663,271.696 200,259.5C 196.333,254.5 192,250.167 187,246.5C 184.955,243.281 185.455,240.448 188.5,238C 191.916,237.107 195.083,237.607 198,239.5C 198.079,243.358 198.746,247.024 200,250.5C 202.592,251.982 204.925,251.648 207,249.5C 209.436,242.133 207.769,235.8 202,230.5C 204.035,224.376 201.868,221.043 195.5,220.5 Z M 238.5,231.5 C 236.433,233.318 235.1,235.651 234.5,238.5C 231.334,239.234 228.334,240.4 225.5,242C 217.884,248.193 216.718,255.359 222,263.5C 226.352,266.855 230.352,270.521 234,274.5C 234.944,277.347 234.444,279.847 232.5,282C 224.497,284.15 221.164,281.316 222.5,273.5C 221.3,268.778 218.634,267.611 214.5,270C 210.872,277.672 212.372,284.172 219,289.5C 218.498,292.193 218.665,294.86 219.5,297.5C 224.96,300.748 227.96,299.082 228.5,292.5C 241.129,290.725 245.962,283.725 243,271.5C 239.473,265.728 234.807,261.061 229,257.5C 227.176,253.627 228.342,250.794 232.5,249C 239.964,248.089 242.631,251.255 240.5,258.5C 241.903,262.254 244.57,263.421 248.5,262C 252.274,253.62 250.607,246.453 243.5,240.5C 245.656,235.331 243.989,232.331 238.5,231.5 Z M 280.5,243.5 C 278.166,245.176 277.166,247.509 277.5,250.5C 264.381,252.442 259.548,259.775 263,272.5C 267.721,277.221 272.387,281.887 277,286.5C 278.13,291.383 276.13,294.05 271,294.5C 267.014,294.344 264.848,292.344 264.5,288.5C 266.138,285.73 265.805,283.23 263.5,281C 260.222,279.041 257.722,279.874 256,283.5C 253.757,291.274 255.923,297.441 262.5,302C 261.409,304.064 261.242,306.231 262,308.5C 267.023,311.916 270.19,310.583 271.5,304.5C 285.508,301.482 289.675,293.482 284,280.5C 279.148,275.982 274.648,271.149 270.5,266C 273.28,259.515 277.447,258.348 283,262.5C 283.333,265.5 283.667,268.5 284,271.5C 286.237,275.02 288.904,275.353 292,272.5C 294.827,264.982 293.161,258.649 287,253.5C 286.845,251.144 286.845,248.811 287,246.5C 285.713,243.855 283.547,242.855 280.5,243.5 Z"/></g>
<g><path style="opacity:0.938" fill="#fefffe" d="M 35.5,346.5 C 41.8333,346.5 48.1667,346.5 54.5,346.5C 54.5,380.167 54.5,413.833 54.5,447.5C 48.1667,447.5 41.8333,447.5 35.5,447.5C 35.5,413.833 35.5,380.167 35.5,346.5 Z"/></g>
<g><path style="opacity:0.934" fill="#fefffe" d="M 64.5,354.5 C 68.1667,354.5 71.8333,354.5 75.5,354.5C 75.5,382.833 75.5,411.167 75.5,439.5C 71.8333,439.5 68.1667,439.5 64.5,439.5C 64.5,411.167 64.5,382.833 64.5,354.5 Z"/></g>
<g><path style="opacity:0.966" fill="#fefffe" d="M 119.5,360.5 C 132.702,360.287 145.702,361.787 158.5,365C 189.406,376.746 220.073,389.08 250.5,402C 255.201,410.234 253.034,415.734 244,418.5C 221.245,411.692 198.579,404.692 176,397.5C 170.737,400.032 170.237,403.198 174.5,407C 197.528,414.381 220.695,421.214 244,427.5C 254.808,426.858 260.975,421.191 262.5,410.5C 291.154,402.836 319.82,395.17 348.5,387.5C 358.294,389.346 361.461,395.012 358,404.5C 356.442,406.359 354.609,407.859 352.5,409C 322.045,423.394 291.711,438.061 261.5,453C 254.158,456.838 246.492,459.838 238.5,462C 231.101,462.848 223.767,462.515 216.5,461C 185.235,448.468 153.901,436.134 122.5,424C 110.083,421.554 97.9165,422.387 86,426.5C 85.1669,405.825 85.3336,385.159 86.5,364.5C 97.6186,363.091 108.619,361.757 119.5,360.5 Z"/></g>
</svg>
